<svg xmlns="http://www.w3.org/2000/svg" xmlns:xlink="http://www.w3.org/1999/xlink" width="24.355" height="19.136" viewBox="0 0 24.355 19.136">
  <defs>
    <clipPath id="clip-path">
      <rect id="Retângulo_4" data-name="Retângulo 4" width="19.136" height="24.355" fill="#fff"/>
    </clipPath>
  </defs>
  <g id="Contactless_Icon" data-name="Contactless Icon" transform="translate(0 19.136) rotate(-90)" clip-path="url(#clip-path)">
    <path id="Caminho_2" data-name="Caminho 2" d="M15,24.155a1.407,1.407,0,0,1-.861-1.012c-.054-.286.012-.485.422-1.278a20.022,20.022,0,0,0,2.377-9.734A19.709,19.709,0,0,0,14.72,2.754,9.75,9.75,0,0,1,14.1,1.325,1.454,1.454,0,0,1,14.7.289a1.353,1.353,0,0,1,1.484.1,7.025,7.025,0,0,1,.759,1.246,23.685,23.685,0,0,1,2.293,7.207,28.282,28.282,0,0,1,.095,5.992,23.565,23.565,0,0,1-2.173,7.346c-.678,1.4-1.1,1.98-1.461,1.98a1.059,1.059,0,0,0-.258.04A1.065,1.065,0,0,1,15,24.155Zm-4.611-2.413a1.263,1.263,0,0,1-.85-1.446c.042-.132.321-.74.62-1.351A15.081,15.081,0,0,0,11.7,10.86a14.6,14.6,0,0,0-1.624-5.715c-.678-1.386-.709-1.6-.315-2.158a1.29,1.29,0,0,1,1.8-.166A16.614,16.614,0,0,1,13.373,6.6a17.946,17.946,0,0,1-.587,12.669C11.9,21.354,11.273,22,10.393,21.743ZM5.637,19.3a1.438,1.438,0,0,1-.768-.943c-.052-.238.038-.5.473-1.382a10.137,10.137,0,0,0,.053-9.51c-.686-1.388-.7-1.664-.121-2.211a.914.914,0,0,1,.81-.318c.674,0,1.024.339,1.627,1.577a12.015,12.015,0,0,1,1.3,5.672,11.544,11.544,0,0,1-1.348,5.676c-.567,1.15-.847,1.453-1.415,1.531A1.327,1.327,0,0,1,5.637,19.3ZM1.2,17.017a1.5,1.5,0,0,1-.72-.859c-.11-.384-.02-.689.416-1.405a4.1,4.1,0,0,0,.691-2.621A4.1,4.1,0,0,0,.9,9.51a5.166,5.166,0,0,1-.424-.832A1.27,1.27,0,0,1,1.477,7.2c.576-.108.972.149,1.5.976a7.473,7.473,0,0,1,0,7.97C2.437,16.983,1.833,17.279,1.2,17.017Z" transform="translate(-0.428 0.061)" fill="#686c73"/>
  </g>
</svg>
