<svg id="_Group_" data-name="&lt;Group&gt;" xmlns="http://www.w3.org/2000/svg" width="209.521" height="129.522" viewBox="0 0 209.521 129.522">
  <rect id="rect12-2" width="56.654" height="101.815" transform="translate(76.428 13.83)" fill="#ff5f00"/>
  <path id="_Path_" data-name="&lt;Path&gt;" d="M117.991,83.744a64.64,64.64,0,0,1,24.73-50.9,64.747,64.747,0,1,0,0,101.815,64.639,64.639,0,0,1-24.73-50.917Z" transform="translate(-37.965 -18.979)" fill="#eb001b"/>
  <path id="path15-2" d="M200.975,83.755a64.747,64.747,0,0,1-104.765,50.9,64.747,64.747,0,0,0,0-101.815A64.748,64.748,0,0,1,200.975,83.755Z" transform="translate(8.546 -18.991)" fill="#f79e1b"/>
  <path id="path17-9" d="M151.559,78.408V76.322h.845v-.414h-2.1v.432h.845v2.086Zm4.155,0V75.89h-.557l-.755,1.8-.755-1.8h-.666v2.518h.378V76.519l.7,1.637h.486l.7-1.637v1.906Z" transform="translate(51.739 26.446)" fill="#f79e1b"/>
</svg>
