<svg id="Layer_2" data-name="Layer 2" xmlns="http://www.w3.org/2000/svg" width="861.483" height="197.785" viewBox="0 0 861.483 197.785">
  <g id="Layer_1" data-name="Layer 1">
    <rect id="rect8-7" width="861.483" height="197.785" fill="none"/>
    <path id="path10-0" d="M246.695,93.909V66.931c0-10.18-6.493-17.032-16.942-17.122a16.672,16.672,0,0,0-15.126,7.662A15.809,15.809,0,0,0,200.4,49.809a14.245,14.245,0,0,0-12.59,6.4v-5.4h-9.37V93.909h9.46V70.042c0-7.482,4.137-11.439,10.539-11.439s9.37,4.047,9.37,11.349V93.909h9.406V70.042c0-7.482,4.316-11.439,10.539-11.439s9.46,4.047,9.46,11.349V93.909Zm139.98-43.057H371.369V37.795h-9.46V50.852h-8.741v8.561h8.741V79.035c0,10,3.867,15.953,14.946,15.953a22.014,22.014,0,0,0,11.708-3.327l-2.7-8.021a17.3,17.3,0,0,1-8.291,2.428c-4.676,0-6.223-2.878-6.223-7.194V59.413h15.306Zm79.909-1.079a12.7,12.7,0,0,0-11.349,6.313V50.852h-9.281V93.909h9.37V69.773c0-7.194,3.057-11.079,9.19-11.079a15.27,15.27,0,0,1,5.863,1.079l2.878-8.831a20.018,20.018,0,0,0-6.673-1.169Zm-120.808,4.5a32.193,32.193,0,0,0-17.572-4.5c-10.9,0-17.985,5.234-17.985,13.777,0,7.032,5.216,11.349,14.856,12.7l4.406.629c5.126.719,7.572,2.068,7.572,4.5,0,3.327-3.417,5.234-9.82,5.234a22.949,22.949,0,0,1-14.388-4.5l-4.263,7.284a31.061,31.061,0,0,0,18.651,5.593c12.428,0,19.64-5.863,19.64-14.047,0-7.572-5.683-11.529-15.036-12.878l-4.406-.629c-4.047-.54-7.3-1.349-7.3-4.227,0-3.147,3.057-5.036,8.2-5.036a27.751,27.751,0,0,1,13.417,3.687Zm250.932-4.5a12.7,12.7,0,0,0-11.349,6.313V50.852h-9.28V93.909h9.37V69.773c0-7.194,3.057-11.079,9.19-11.079a15.27,15.27,0,0,1,5.863,1.079l2.878-8.831A20.018,20.018,0,0,0,596.708,49.773ZM476.044,72.38c0,13.057,9.1,22.608,22.967,22.608A22.554,22.554,0,0,0,514.5,89.844L510,82.272a18.92,18.92,0,0,1-11.259,3.867c-7.482,0-12.968-5.5-12.968-13.777s5.5-13.687,12.968-13.777A18.92,18.92,0,0,1,510,62.453l4.5-7.572a22.554,22.554,0,0,0-15.485-5.144c-13.867,0-22.967,9.55-22.967,22.608Zm87.733,0V50.8h-9.37v5.234a16.331,16.331,0,0,0-13.6-6.313c-12.068,0-21.582,9.46-21.582,22.608s9.46,22.608,21.582,22.608a16.331,16.331,0,0,0,13.6-6.313v5.216h9.37Zm-34.856,0c0-7.572,4.946-13.777,13.057-13.777,7.752,0,12.967,5.953,12.967,13.777s-5.216,13.777-12.967,13.777C533.868,86.157,528.922,79.934,528.922,72.38ZM415.865,49.773c-12.59,0-21.439,9.191-21.439,22.608,0,13.687,9.19,22.608,22.068,22.608a26.169,26.169,0,0,0,17.662-6.043L429.57,82a20.521,20.521,0,0,1-12.59,4.5c-6.043,0-11.529-2.788-12.878-10.539h31.978c.09-1.169.18-2.338.18-3.6,0-13.417-8.381-22.608-20.449-22.608Zm-.18,8.381c6.043,0,9.91,3.777,10.9,10.45h-22.32c.989-6.223,4.766-10.45,11.439-10.45ZM650.665,72.38V33.55h-9.37V56.068a16.331,16.331,0,0,0-13.6-6.313c-12.068,0-21.583,9.46-21.583,22.608S615.575,94.97,627.7,94.97a16.331,16.331,0,0,0,13.6-6.313v5.216h9.37Zm10.953,17.554a2.751,2.751,0,0,1,1.079.216,2.824,2.824,0,0,1,.881.593,2.755,2.755,0,0,1,.594.863,2.681,2.681,0,0,1,0,2.122,2.769,2.769,0,0,1-.594.863,2.879,2.879,0,0,1-.881.593,2.7,2.7,0,0,1-1.079.216,2.788,2.788,0,0,1-2.59-1.673,2.7,2.7,0,0,1,0-2.122A2.733,2.733,0,0,1,660.5,90.15a2.823,2.823,0,0,1,1.151-.216Zm0,4.856a2.032,2.032,0,0,0,.827-.162,2.174,2.174,0,0,0,.665-.45,2.133,2.133,0,0,0-.665-3.471,2.067,2.067,0,0,0-.827-.162,2.123,2.123,0,1,0,.036,4.245Zm.162-3.417a1.151,1.151,0,0,1,.755.216.719.719,0,0,1,.27.594.683.683,0,0,1-.216.522,1.007,1.007,0,0,1-.593.252l.827.953h-.647l-.773-.953h-.252v.953h-.54V91.391Zm-.629.468v.683h.629a.612.612,0,0,0,.342,0,.315.315,0,0,0,0-.5.611.611,0,0,0-.342,0ZM615.845,72.38c0-7.572,4.946-13.777,13.057-13.777,7.752,0,12.967,5.953,12.967,13.777S636.654,86.157,628.9,86.157C620.791,86.157,615.845,79.934,615.845,72.38Zm-316.363,0V50.8h-9.37v5.234a16.331,16.331,0,0,0-13.543-6.259c-12.068,0-21.582,9.46-21.582,22.608s9.46,22.608,21.582,22.608a16.331,16.331,0,0,0,13.6-6.313v5.216h9.37Zm-34.856,0c0-7.572,4.946-13.777,13.057-13.777,7.752,0,12.968,5.953,12.968,13.777s-5.216,13.777-12.968,13.777C269.572,86.157,264.626,79.952,264.626,72.38Z" transform="translate(142.492 26.791)" fill="#231f20"/>
    <g id="_Group_" data-name="&lt;Group&gt;" transform="translate(68.282 34.155)">
      <rect id="rect12-2" width="56.654" height="101.815" transform="translate(76.428 13.83)" fill="#ff5f00"/>
      <path id="_Path_" data-name="&lt;Path&gt;" d="M117.991,83.744a64.64,64.64,0,0,1,24.73-50.9,64.747,64.747,0,1,0,0,101.815,64.639,64.639,0,0,1-24.73-50.917Z" transform="translate(-37.965 -18.979)" fill="#eb001b"/>
      <path id="path15-2" d="M200.975,83.755a64.747,64.747,0,0,1-104.765,50.9,64.747,64.747,0,0,0,0-101.815A64.748,64.748,0,0,1,200.975,83.755Z" transform="translate(8.546 -18.991)" fill="#f79e1b"/>
      <path id="path17-9" d="M151.559,78.408V76.322h.845v-.414h-2.1v.432h.845v2.086Zm4.155,0V75.89h-.557l-.755,1.8-.755-1.8h-.666v2.518h.378V76.519l.7,1.637h.486l.7-1.637v1.906Z" transform="translate(51.739 26.446)" fill="#f79e1b"/>
    </g>
  </g>
</svg>
