<svg width="17" height="14" viewBox="0 0 17 14" fill="none" xmlns="http://www.w3.org/2000/svg">
<path d="M16.5568 3.70516C16.4833 3.95926 16.1809 4.21678 15.8923 4.27087C15.7043 4.30618 15.5739 4.26313 15.0529 3.99379C12.9475 2.90541 11.01 2.4324 8.65824 2.4324C6.38548 2.4324 4.6171 2.85119 2.4976 3.89157C2.04262 4.11494 1.62014 4.29767 1.55906 4.29767C1.33354 4.29767 1.00656 4.10897 0.878302 3.90465C0.702429 3.6244 0.735319 3.15481 0.946366 2.93005C1.02751 2.8437 1.39602 2.61919 1.76503 2.43126C3.22675 1.68687 4.83043 1.17678 6.49964 0.92497C7.53265 0.76916 9.49049 0.738174 10.4361 0.862618C12.1807 1.09233 13.7372 1.55278 15.2622 2.29005C16.184 2.73564 16.5631 3.01538 16.5631 3.24954C16.5631 3.2964 16.5748 3.37284 16.5892 3.41932C16.6033 3.46605 16.5888 3.59456 16.5568 3.70516ZM14.9719 6.73462C14.8585 7.12433 14.3804 7.40535 14.0222 7.29271C13.9354 7.26541 13.536 7.08192 13.1344 6.8851C11.4344 6.05145 9.61189 5.70465 7.82256 5.87456C6.35233 6.01424 5.4251 6.27773 4.0684 6.94148C3.15818 7.38681 3.0171 7.40751 2.65062 7.14859C2.30218 6.90237 2.24567 6.28789 2.54179 5.9651C2.747 5.74135 4.20021 5.04548 5.02319 4.77691C7.74675 3.88802 10.6704 4.02364 13.346 5.16281C14.7165 5.7463 15.1403 6.15595 14.9719 6.73462ZM13.3647 9.85868C13.2561 10.0994 13.0015 10.3067 12.7448 10.3631C12.5885 10.3975 12.4156 10.3383 11.837 10.0526C9.71195 9.00332 7.6651 8.99202 5.58941 10.018C4.6778 10.4686 4.49634 10.4785 4.13684 10.0974C3.95945 9.90935 3.92808 9.82948 3.92808 9.56535C3.92808 9.1223 4.15068 8.89259 4.96389 8.49665C6.21468 7.88776 7.29976 7.63849 8.68999 7.64052C10.1189 7.64268 11.0999 7.8757 12.4189 8.52624C13.1741 8.89881 13.3734 9.08294 13.4246 9.45589C13.4402 9.56967 13.4132 9.75087 13.3647 9.85868ZM11.8675 12.7739C11.7885 12.9646 11.529 13.1824 11.3033 13.2471C11.0511 13.3194 10.851 13.2602 10.3801 12.9739C9.77456 12.6056 9.4496 12.5199 8.65811 12.5199C7.86675 12.5199 7.54167 12.6056 6.93608 12.9739C6.73075 13.0987 6.48478 13.224 6.38941 13.2525C5.9903 13.3711 5.50116 13.0385 5.41735 12.5918C5.34624 12.2131 5.51526 11.953 6.05875 11.6048C7.63234 10.5967 9.73443 10.5968 11.2947 11.6053C11.8452 11.961 12.0397 12.3577 11.8675 12.7739Z" fill="white"/>
</svg>
