<svg width="13" height="16" viewBox="0 0 13 16" fill="none" xmlns="http://www.w3.org/2000/svg">
<path d="M10.0057 15.9083C9.75165 15.8348 9.49413 15.5325 9.44003 15.2438C9.40473 15.0559 9.44778 14.9255 9.71711 14.4045C10.8055 12.2991 11.2785 10.3615 11.2785 8.0098C11.2785 5.73703 10.8597 3.96865 9.81933 1.84916C9.59597 1.39418 9.41324 0.971699 9.41324 0.91062C9.41324 0.685096 9.60194 0.358111 9.80626 0.229857C10.0865 0.0539843 10.5561 0.0868734 10.7809 0.297921C10.8672 0.379064 11.0917 0.747572 11.2797 1.11659C12.024 2.5783 12.5341 4.18198 12.7859 5.85119C12.9417 6.88421 12.9727 8.84205 12.8483 9.7877C12.6186 11.5322 12.1581 13.0888 11.4209 14.6137C10.9753 15.5355 10.6955 15.9147 10.4614 15.9147C10.4145 15.9147 10.3381 15.9264 10.2916 15.9407C10.2449 15.9548 10.1164 15.9403 10.0057 15.9083ZM6.97629 14.3234C6.58657 14.2101 6.30556 13.732 6.41819 13.3737C6.44549 13.287 6.62899 12.8875 6.82581 12.486C7.65946 10.7859 8.00626 8.96345 7.83635 7.17411C7.69667 5.70389 7.43318 4.77665 6.76943 3.41995C6.3241 2.50973 6.3034 2.36865 6.56232 2.00217C6.80854 1.65373 7.42302 1.59722 7.74581 1.89335C7.96956 2.09856 8.66543 3.55176 8.934 4.37475C9.82289 7.0983 9.68727 10.022 8.5481 12.6975C7.9646 14.0681 7.55496 14.4918 6.97629 14.3234ZM3.85222 12.7162C3.61146 12.6076 3.40422 12.353 3.34784 12.0964C3.31343 11.9401 3.3726 11.7671 3.65832 11.1886C4.70759 9.06351 4.71889 7.01665 3.69286 4.94097C3.24232 4.02935 3.23241 3.84789 3.61349 3.4884C3.80156 3.311 3.88143 3.27964 4.14556 3.27964C4.58861 3.27964 4.81832 3.50224 5.21426 4.31545C5.82315 5.56624 6.07241 6.65132 6.07038 8.04154C6.06822 9.47049 5.83521 10.4514 5.18467 11.7704C4.8121 12.5256 4.62797 12.725 4.25502 12.7761C4.14124 12.7918 3.96003 12.7647 3.85222 12.7162ZM0.937049 11.2191C0.746319 11.1401 0.528541 10.8805 0.463779 10.6549C0.391525 10.4027 0.4507 10.2026 0.737049 9.7317C1.1053 9.12611 1.19102 8.80116 1.19102 8.00967C1.19102 7.2183 1.1053 6.89322 0.737049 6.28764C0.612224 6.0823 0.48689 5.83633 0.458446 5.74097C0.339843 5.34186 0.672415 4.85272 1.11914 4.76891C1.49781 4.69779 1.75787 4.86681 2.10606 5.4103C3.11419 6.98389 3.11407 9.08599 2.10556 10.6462C1.74987 11.1967 1.35318 11.3913 0.937049 11.2191Z" fill="white"/>
</svg>
