<svg width="32" height="23" viewBox="0 0 32 23" fill="none" xmlns="http://www.w3.org/2000/svg">
<rect x="0.5" y="0.75" width="31" height="22" rx="3.75" fill="url(#paint0_linear_45_34)" stroke="#686C73" stroke-width="0.5"/>
<path fill-rule="evenodd" clip-rule="evenodd" d="M20.3232 0.573242L16 4.89647L11.6768 0.573242L11.3232 0.926796L15.75 5.35357L15.75 7.75002H11.75L11.25 7.75002L0.25 7.75002L0.25 8.25002L11.25 8.25002L11.25 15.25L0.25 15.25L0.25 15.75L11.25 15.75H11.75L15.75 15.75L15.75 18.1465L11.3232 22.5732L11.6768 22.9268L16 18.6036L20.3232 22.9268L20.6768 22.5732L16.25 18.1465L16.25 15.75H20.25L20.75 15.75L31.75 15.75V15.25L20.75 15.25L20.75 8.25002L31.75 8.25002V7.75002L20.5 7.75002C20.3619 7.75002 20.25 7.86195 20.25 8.00002L20.25 15.25L16 15.25L11.75 15.25L11.75 8.25002L16 8.25002C16.1381 8.25002 16.25 8.13809 16.25 8.00002L16.25 5.35357L20.6768 0.926796L20.3232 0.573242Z" fill="#686C73"/>
<defs>
<linearGradient id="paint0_linear_45_34" x1="0.25" y1="0.75" x2="32.25" y2="22.75" gradientUnits="userSpaceOnUse">
<stop stop-color="#F3F4F8"/>
<stop offset="1" stop-color="#F8F8FF"/>
</linearGradient>
</defs>
</svg>
